PathFileType	4	(X/Y/Z)	C:\Users\Basilio\Documents\Thesis Gigler\squatting_fais\c3dfiles\038\SLS_back_pre1\markers_experimental.trc
DataRate	CameraRate	NumFrames	NumMarkers	Units	OrigDataRate	OrigDataStartFrame	OrigNumFrames
200.000000	200.000000	4	63	mm	200.000000	181	1448
Frame#	Time	FHD			LBHD			RBHD			C7			T10			CLAV			LSHO			LUUPA			LMUPA			LDUPA			LLEP			LMEP			LUL			LRFIN			RSHO			RUPA1			RMUPA			RDUPA			RLEP			RMEP			RRAD			RUL			RUFIN			LASI			RASI			USACR			LSACR			RSACR			LTHI1			LTHI2			LTHI3			LTHI4			LLFC			LMFC			LTIB1			LTIB2			LTIB3			LTIB4			LLMAL			LMMAL			LHEE			LMT1			LMT2			LMT5			RTHI			RTHI2			RTHI3			RTHI4			RLFC			RMFC			RTIB1			RTIB2			RTIB3			RTIB4			RLMAL			RMMAL			RHEE			RMT1			RMT2			RMT5			LRAD			*61			*62			
		X1	Y1	Z1	X2	Y2	Z2	X3	Y3	Z3	X4	Y4	Z4	X5	Y5	Z5	X6	Y6	Z6	X7	Y7	Z7	X8	Y8	Z8	X9	Y9	Z9	X10	Y10	Z10	X11	Y11	Z11	X12	Y12	Z12	X13	Y13	Z13	X14	Y14	Z14	X15	Y15	Z15	X16	Y16	Z16	X17	Y17	Z17	X18	Y18	Z18	X19	Y19	Z19	X20	Y20	Z20	X21	Y21	Z21	X22	Y22	Z22	X23	Y23	Z23	X24	Y24	Z24	X25	Y25	Z25	X26	Y26	Z26	X27	Y27	Z27	X28	Y28	Z28	X29	Y29	Z29	X30	Y30	Z30	X31	Y31	Z31	X32	Y32	Z32	X33	Y33	Z33	X34	Y34	Z34	X35	Y35	Z35	X36	Y36	Z36	X37	Y37	Z37	X38	Y38	Z38	X39	Y39	Z39	X40	Y40	Z40	X41	Y41	Z41	X42	Y42	Z42	X43	Y43	Z43	X44	Y44	Z44	X45	Y45	Z45	X46	Y46	Z46	X47	Y47	Z47	X48	Y48	Z48	X49	Y49	Z49	X50	Y50	Z50	X51	Y51	Z51	X52	Y52	Z52	X53	Y53	Z53	X54	Y54	Z54	X55	Y55	Z55	X56	Y56	Z56	X57	Y57	Z57	X58	Y58	Z58	X59	Y59	Z59	X60	Y60	Z60	X61	Y61	Z61	X62	Y62	Z62	X63	Y63	Z63	

182	0.905	-242.3198852539063	1769.023315429688	-1078.624877929688	-394.5161132812501	1705.955810546875	-1138.047241210938	-382.6010131835938	1690.96435546875	-993.9610595703127	-424.6492919921876	1525.752075195313	-1062.644897460938	-403.9587402343751	1245.360961914063	-1034.246826171875	-282.0021972656251	1510.18701171875	-1079.820922851563	-355.6824340820313	1538.865234375	-1219.331298828125	-204.5664978027344	1473.0341796875	-1362.219604492188	-175.3257904052735	1509.07421875	-1341.109497070313	-137.4955444335938	1482.532592773438	-1378.687133789063	-75.44612121582033	1488.0380859375	-1387.783325195313	-60.97293853759767	1414.514038085938	-1363.253784179688	220.3726501464844	1511.595336914063	-1354.255615234375	283.5635681152344	1529.497680664063	-1264.64501953125	-319.7639770507813	1541.77783203125	-933.9461669921877	-161.1422729492188	1514.404663085938	-815.8519287109377	-125.8411254882813	1523.427001953125	-848.2255859375002	-93.48263549804689	1510.692016601563	-798.742126464844	-20.35109901428223	1508.436645507813	-788.4266357421877	-14.40956115722657	1429.54296875	-803.1955566406252	254.4579010009766	1499.250854492188	-876.3970947265627	267.6373901367188	1521.081665039063	-809.8560180664065	331.3007507324219	1536.151611328125	-889.1508789062502	-222.9424743652344	1057.303955078125	-1136.470092773438	-238.9071807861329	1081.437133789063	-887.6553955078127	-401.8558044433595	1113.379028320313	-1020.845397949219	-412.4388732910157	1082.16357421875	-1047.351196289063	-414.8324279785157	1084.931274414063	-990.7377929687502	-257.0599365234376	735.8211059570314	-1169.556884765625	-226.6461486816407	657.2352905273439	-1157.506591796875	-180.6701965332032	663.8375244140626	-1135.66357421875	-254.4345855712891	609.1146850585939	-1136.114990234375	-252.5124816894532	547.4439086914064	-1123.044677734375	-241.603500366211	547.3017578125001	-1004.476135253906	-240.7639465332032	360.6632385253907	-1036.972045898438	-291.3032531738282	320.6297607421876	-1097.344116210938	-256.2833251953126	313.0564575195313	-1069.068725585938	-279.7630004882813	239.3287353515626	-1032.778076171875	-381.9602661132813	118.8679428100586	-1040.21337890625	-339.6802673339844	136.638427734375	-970.627624511719	-432.6006164550782	101.4739227294922	-982.5305786132815	-233.9319763183594	48.52634811401369	-976.1419067382815	-226.035629272461	44.91363143920899	-1026.433349609375	-271.8842773437501	33.21898269653321	-1073.161010742188	-260.2188110351563	807.7614746093752	-812.4016723632815	-218.6055450439454	755.7344970703126	-802.143493652344	-185.7828826904297	759.4628906250001	-806.5937500000002	-240.1853179931641	672.3259277343751	-809.1895141601565	-230.5390319824219	565.4587402343751	-818.606628417969	-225.5543823242188	554.0366821289064	-931.609558105469	-333.4990844726563	426.5325012207032	-843.9412231445315	-445.9029541015626	448.619598388672	-824.8628540039065	-416.6356201171876	411.4153747558595	-827.076354980469	-449.4624023437501	372.9662170410157	-858.8428344726565	-583.6082153320314	364.7402038574219	-846.402038574219	-555.7321777343751	332.1959228515626	-918.1363525390627	-621.3327636718751	403.8443603515626	-922.4773559570315	-598.9691162109376	190.5763397216797	-894.0966796875002	-607.3149414062501	193.0897979736329	-847.526306152344	-644.5011596679689	234.1822509765626	-814.8741455078127	nan	nan	nan	nan	nan	nan	nan	nan	nan	
183	0.91	-242.4528961181641	1769.056762695313	-1078.597778320313	-394.4201049804689	1705.932739257813	-1138.063720703125	-382.5562438964844	1690.94775390625	-993.9879150390627	-424.6202697753907	1525.74267578125	-1062.659912109375	-403.8919372558595	1245.39697265625	-1034.242553710938	-281.9244995117188	1510.307739257813	-1079.866455078125	-355.6818542480469	1538.86083984375	-1219.318481445313	-204.5608520507813	1472.998901367188	-1362.264770507813	-175.2601318359375	1509.09130859375	-1341.1240234375	-137.4316711425782	1482.504760742188	-1378.7314453125	-75.44424438476564	1488.014038085938	-1387.76025390625	-61.00036239624025	1414.440673828125	-1363.32177734375	220.4116821289063	1511.528198242188	-1354.29833984375	283.5348205566407	1529.44189453125	-1264.685668945313	-319.6885986328126	1541.7626953125	-933.966491699219	-161.0952758789063	1514.371948242188	-815.893249511719	-125.7839813232422	1523.427734375	-848.273864746094	-93.45275115966798	1510.656372070313	-798.7879028320315	-20.24856567382813	1508.481567382813	-788.3980712890627	-14.36139488220215	1429.480346679688	-803.2042236328127	254.4659576416016	1499.199951171875	-876.381042480469	267.6271362304688	1521.082275390625	-809.8570556640627	331.4386291503907	1536.172607421875	-889.168151855469	-223.0030670166016	1057.290405273438	-1136.473022460938	-238.8924407958985	1081.402465820313	-887.6738281250002	-401.7708129882814	1113.3515625	-1020.791931152344	-412.3544311523439	1082.211791992188	-1047.303466796875	-414.7861938476564	1084.955688476563	-990.694030761719	-257.0619201660157	735.8264160156251	-1169.6298828125	-226.6176452636719	657.2554321289064	-1157.614990234375	-180.6098937988282	663.7982177734376	-1135.788330078125	-254.4113006591797	609.0800170898439	-1136.21630859375	-252.4686126708985	547.4291992187501	-1123.12548828125	-241.4867401123047	547.2687377929689	-1004.590637207031	-240.6638793945313	360.6524658203126	-1037.127197265625	-291.4261474609376	320.6328735351563	-1097.453735351563	-256.2682189941407	313.1128845214844	-1069.195190429688	-279.7746276855469	239.4353332519532	-1032.884155273438	-381.9546508789063	118.852897644043	-1040.441284179688	-339.6365051269532	136.6792907714844	-970.6790771484377	-432.6301574707032	101.4661026000977	-982.5585937500002	-233.9045410156251	48.67078781127931	-976.2092285156252	-225.9836578369141	44.88355255126954	-1026.500366210938	-271.9117431640626	33.1955680847168	-1073.223266601563	-260.1870422363282	807.7357177734377	-812.339782714844	-218.5345153808594	755.7720336914064	-802.1228637695315	-185.7177886962891	759.4908447265626	-806.5950927734377	-240.1774291992188	672.3070678710939	-809.161071777344	-230.6520385742188	565.1965332031251	-818.6123046875002	-225.4725036621094	554.0339355468751	-931.5605468750002	-333.4236145019532	426.4187927246095	-843.8484497070315	-445.8450012207032	448.6461181640626	-824.7312622070315	-416.5167541503907	411.3583984375001	-827.0278930664065	-449.3835754394532	372.9058837890626	-858.7210693359377	-583.4843139648439	364.7219543457032	-846.3482055664065	-555.6476440429689	332.1504516601563	-918.0666503906252	-621.2828979492189	403.7624816894532	-922.3642578125002	-598.8367309570314	190.4329071044922	-893.960876464844	-607.2583007812501	192.9694519042969	-847.526550292969	-644.4821166992189	234.3695068359376	-814.7918701171877	nan	nan	nan	nan	nan	nan	nan	nan	nan	
184	0.915	-242.2241973876954	1769.075561523438	-1078.723266601563	-394.3491210937501	1705.904907226563	-1138.106201171875	-382.5659790039063	1690.9326171875	-993.9541015625002	-424.5687866210939	1525.793212890625	-1062.659912109375	-403.9085693359376	1245.42919921875	-1034.24951171875	-281.8623046875001	1510.255126953125	-1079.851928710938	-355.6163330078126	1538.808471679688	-1219.333740234375	-204.575180053711	1473.037841796875	-1362.271484375	-175.2753143310547	1509.092529296875	-1341.159912109375	-137.4138641357422	1482.514892578125	-1378.75830078125	-75.42359161376955	1487.997436523438	-1387.795776367188	-60.94049453735353	1414.373168945313	-1363.343994140625	220.4165344238282	1511.568359375	-1354.3740234375	283.9242858886719	1529.188232421875	-1264.671997070313	-319.6510925292969	1541.759521484375	-933.9451904296877	-161.0473022460938	1514.422973632813	-815.859802246094	-125.752914428711	1523.437866210938	-848.2790527343752	-93.37535858154298	1510.672485351563	-798.7904052734377	-20.24148750305176	1508.467529296875	-788.4517211914065	-14.31804752349854	1429.503784179688	-803.2255859375002	254.5443572998047	1499.11279296875	-876.4128417968752	267.7180786132813	1521.03564453125	-809.8752441406252	331.4783325195313	1536.10498046875	-889.2393188476565	-222.9513854980469	1057.294311523438	-1136.483276367188	-238.8405151367188	1081.38037109375	-887.673767089844	-401.7596130371095	1113.274536132813	-1020.778137207031	-412.4422607421876	1082.200561523438	-1047.288452148438	-414.6564025878907	1084.944091796875	-990.6276855468752	-257.0968017578126	735.8403320312501	-1169.675415039063	-226.6717071533204	657.2700805664064	-1157.706420898438	-180.5857543945313	663.7805786132814	-1135.873291015625	-254.4809570312501	609.0788574218751	-1136.335327148438	-252.3696441650391	547.4665527343751	-1123.296264648438	-241.4056091308594	547.1804809570314	-1004.69384765625	-240.6121368408204	360.6505126953126	-1037.29296875	-291.3316955566407	320.6503601074219	-1097.634765625	-256.2868347167969	313.0665283203126	-1069.231689453125	-279.7347412109376	239.3025207519532	-1033.080688476563	-382.0682678222657	118.8320541381836	-1040.419921875	-339.6282653808594	136.8213806152344	-970.825378417969	-432.6024475097657	101.4593734741211	-982.625915527344	-233.8641815185547	48.71738815307619	-976.239440917969	-226.0024719238282	44.91407775878907	-1026.511352539063	-271.9613037109376	33.12414169311524	-1073.218994140625	-260.1536865234376	807.7327270507815	-812.3760986328127	-218.5323486328126	755.7659912109376	-802.1125488281252	-185.6668701171875	759.5094604492189	-806.5816650390627	-240.1304779052735	672.3317871093751	-809.1301269531252	-230.6228637695313	565.1950683593751	-818.5963134765627	-225.4197692871094	554.0123291015626	-931.5401611328127	-333.3273925781251	426.429901123047	-843.8071899414065	-445.7950134277345	448.5530700683595	-824.696228027344	-416.4476013183595	411.2976684570314	-826.9714965820315	-449.3313293457032	372.8846435546876	-858.6765747070315	-583.4016113281251	364.6595458984376	-846.2319946289065	-555.6127929687501	332.0625000000001	-917.9942016601565	-621.2814941406251	403.6689453125001	-922.2687988281252	-598.7192382812501	190.4625854492188	-893.885681152344	-607.2144165039064	193.0060577392579	-847.4749145507815	-644.3826293945314	234.2637023925782	-814.650573730469	nan	nan	nan	nan	nan	nan	nan	nan	nan	
185	0.92	-242.0865478515626	1769.067016601563	-1078.716430664063	-394.3387145996095	1705.883422851563	-1138.102416992188	-382.4893188476563	1690.884033203125	-993.9705810546877	-424.4686889648439	1525.739135742188	-1062.684692382813	-403.8136596679689	1245.41943359375	-1034.202026367188	-281.7866210937501	1510.243896484375	-1079.867431640625	-355.5226745605469	1538.77197265625	-1219.3271484375	-204.5215606689454	1473.042114257813	-1362.298217773438	-175.2934875488282	1509.092895507813	-1341.154907226563	-137.402099609375	1482.514282226563	-1378.7666015625	-75.42321014404298	1487.999877929688	-1387.806640625	-60.93104934692384	1414.431884765625	-1363.408081054688	220.4372100830079	1511.528930664063	-1354.412353515625	283.5964355468751	1529.39453125	-1264.770385742188	-319.5606994628907	1541.768798828125	-933.9487304687502	-160.9658508300782	1514.407836914063	-815.9073486328127	-125.6392059326172	1523.4365234375	-848.3520507812502	-93.34249877929689	1510.692016601563	-798.7939453125002	-20.17961883544922	1508.4716796875	-788.460876464844	-14.22719764709473	1429.489501953125	-803.1592407226565	254.5822296142579	1499.058227539063	-876.3691406250002	267.7324218750001	1521.016723632813	-809.8718261718752	331.6218566894532	1535.938232421875	-889.2674560546877	-222.9626464843751	1057.259521484375	-1136.442626953125	-238.7520446777344	1081.35400390625	-887.6787109375002	-401.7759399414064	1113.3193359375	-1020.763977050781	-412.3284301757814	1082.180908203125	-1047.224365234375	-414.4594116210939	1084.982177734375	-990.555847167969	-257.0498352050782	735.8167114257814	-1169.79931640625	-226.6832122802735	657.2767333984376	-1157.826416015625	-180.6048736572266	663.8192138671876	-1136.043212890625	-254.5340423583985	609.1117553710939	-1136.42529296875	-252.4202423095704	547.4899902343751	-1123.378540039063	-241.2690734863282	547.1688232421876	-1004.814758300781	-240.4988555908204	360.6108093261719	-1037.427124023438	-291.3159484863282	320.6600036621094	-1097.728271484375	-256.3558959960938	313.0781250000001	-1069.420532226563	-279.7288513183594	239.3396911621094	-1033.236206054688	-382.0748291015626	118.7494125366211	-1040.608642578125	-339.6504516601563	136.7961883544922	-970.933044433594	-432.6184692382814	101.4900665283203	-982.6177368164065	-233.9107818603516	48.86765289306642	-976.3161621093752	-225.9955291748047	44.93115234375001	-1026.605346679688	-271.9174499511719	33.1100082397461	-1073.273803710938	-260.1215820312501	807.7163085937502	-812.332214355469	-218.5025634765626	755.6638183593751	-802.0936279296877	-185.6473541259766	759.4839477539064	-806.567077636719	-240.0900421142579	672.3244018554689	-809.0931396484377	-230.4358520507813	565.4519042968751	-818.4785156250002	-225.4090118408204	553.9956054687501	-931.480895996094	-333.2790527343751	426.4365539550782	-843.7680664062502	-445.7035217285157	448.5346069335939	-824.6541748046877	-416.3838806152345	411.2622070312501	-826.8894042968752	-449.1968383789064	372.8975219726563	-858.5581665039065	-583.3505859375001	364.6130371093751	-846.103942871094	-555.5480346679689	332.0195617675782	-917.9803466796877	-621.2322998046876	403.6091918945314	-922.2160644531252	-598.5905151367189	190.3325805664063	-893.7321777343752	-607.1266479492189	192.8772888183594	-847.453308105469	-644.2585449218751	234.1692199707032	-814.5003662109377	nan	nan	nan	nan	nan	nan	nan	nan	nan	
